<?xml version="1.0" standalone="no"?><!DOCTYPE svg PUBLIC "-//W3C//DTD SVG 1.1//EN" "http://www.w3.org/Graphics/SVG/1.1/DTD/svg11.dtd"><svg t="1751467887012" class="icon" viewBox="0 0 1024 1024" version="1.1" xmlns="http://www.w3.org/2000/svg" p-id="3221" xmlns:xlink="http://www.w3.org/1999/xlink" width="200" height="200"><path d="M0.001929 2.195284h1021.804717v1021.804716H0.001929z" fill="#9FFFF7" p-id="3222"></path><path d="M633.141668 348.850516c6.386279 58.075229 33.627753 101.881115 81.72442 131.517443 48.096667 29.636328 46.300526 57.37673-5.388423 83.320991-51.589164 25.94426-84.219061 67.455077-97.989476 124.732021-13.870201 57.276944-39.814461 64.860651-78.132138 22.850906s-85.715845-60.170727-142.294289-54.383161c-56.578445 5.787566-70.847788-17.262912-42.907815-69.151433s31.332684-104.675112 10.078347-158.359774c-21.154551-53.784447-3.991425-75.637498 51.589164-65.658936s105.074255-4.490353 148.580783-43.506529c43.306958-39.016176 68.353148-29.436757 74.739427 28.638472z m0 0" fill="#4DECE1" p-id="3223"></path><path d="M577.760651 363.11986c6.386279 58.075229 33.627753 101.881115 81.72442 131.517443 48.096667 29.636328 46.300526 57.37673-5.388423 83.32099-51.589164 25.94426-84.219061 67.455077-97.989476 124.732021-13.870201 57.276944-39.814461 64.860651-78.132138 22.850906-38.217891-42.009745-85.715845-60.170727-142.29429-54.383161-56.578445 5.787566-70.847788-17.262912-42.907815-69.151433s31.332684-104.675112 10.078348-158.359774c-21.154551-53.784447-3.991425-75.637498 51.589163-65.658935s105.074255-4.490353 148.580784-43.506529c43.406743-38.916391 68.353148-29.436757 74.739427 28.638472z m0 0" fill="#F27A97" p-id="3224"></path><path d="M519.884993 759.767687c-14.069772 0-29.636328-9.579419-47.398168-29.137401-18.260768-20.056909-38.916391-34.525823-61.368154-43.207172-22.551549-8.581563-47.597739-11.575132-74.639642-8.781134-31.033327 3.19314-50.591308-1.895927-59.771584-15.666342-9.379848-14.069772-6.286494-35.224323 9.479634-64.561294 13.371273-24.846619 20.95498-50.291951 22.651335-75.437926 1.59657-25.145975-2.694212-50.99045-12.872345-76.635354-11.874488-30.135256-12.373416-51.289807-1.496784-64.561294 10.677061-13.071916 30.73397-16.664198 61.368154-11.175989 26.542974 4.78971 51.888521 3.692068 75.437926-3.19314 23.549406-6.885208 46.100955-19.857338 66.856364-38.517248 24.148119-21.753264 43.506529-29.436757 58.973299-23.549405 15.466771 5.887351 24.746833 24.547262 28.23933 56.877801 3.093354 27.740401 11.175989 52.387449 24.148119 73.242643 12.97213 20.855194 31.133112 38.517248 54.083804 52.686806 26.542974 16.364841 39.016176 32.430325 38.317677 49.294094-0.698499 17.163126-15.167414 32.530111-44.205028 47.098811-24.746833 12.373416-45.103099 28.738258-60.669655 48.49581-15.566556 19.857338-26.842331 43.805886-33.428182 71.246931-7.783278 32.430325-19.557981 50.192165-36.022607 54.383161-2.694212 0.798285-5.188852 1.097642-7.683493 1.097642z m-164.247125-97.091406c49.892808 0 92.800624 19.458195 127.825375 57.875658 16.464627 18.061197 30.334828 26.343403 40.113818 23.748977 10.277919-2.594426 18.959267-17.662054 25.145975-43.406743 14.269343-59.272656 48.49581-102.878971 101.980901-129.721302 23.050477-11.575132 35.52368-23.44962 35.922822-34.326252 0.498928-10.577275-10.277919-23.050477-31.232898-35.823037-49.892808-30.73397-78.631066-76.834925-85.216917-137.005652-2.793997-25.545118-9.280062-40.912103-18.759696-44.504385-9.479634-3.592282-24.547262 3.592282-43.606314 20.655623-45.103099 40.413175-97.191191 55.680374-154.867278 45.30267-24.148119-4.290782-40.413175-2.295069-47.198597 5.987137-6.885208 8.481777-5.587995 25.644904 3.891639 49.593451 21.952836 55.480803 18.360553 110.961606-10.477489 164.646268-12.572988 23.349834-16.065484 40.313389-10.178133 49.094524 5.587995 8.381992 21.453908 11.575132 45.801598 9.080491 7.184564-0.898071 14.069772-1.197427 20.855194-1.197428z" fill="#6B3437" p-id="3225"></path><path d="M573.769226 314.125122c6.386279 58.075229 33.627753 101.881115 81.72442 131.517443 48.096667 29.636328 46.300526 57.37673-5.388423 83.32099-51.589164 25.94426-84.219061 67.455077-97.989476 124.732021-13.870201 57.276944-39.814461 64.860651-78.132138 22.850906-38.217891-42.009745-85.715845-60.170727-142.294289-54.383161-56.578445 5.787566-70.847788-17.262912-42.907815-69.151432s31.332684-104.675112 10.078347-158.359774c-21.154551-53.784447-3.991425-75.637498 51.589164-65.658936s105.074255-4.490353 148.580783-43.506529c43.406743-38.916391 68.353148-29.436757 74.739427 28.638472z m0 0" fill="#FEA7C1" p-id="3226"></path><path d="M515.893569 710.772949c-14.069772 0-29.636328-9.579419-47.398168-29.1374-18.260768-20.056909-38.916391-34.525823-61.368155-43.207172-22.551549-8.581563-47.597739-11.575132-74.639641-8.781135-31.033327 3.19314-50.591308-1.895927-59.771585-15.666342-9.379848-14.069772-6.286494-35.224323 9.479634-64.561294 13.371273-24.846619 20.95498-50.291951 22.651335-75.437926 1.59657-25.145975-2.694212-50.99045-12.872345-76.635354-11.874488-30.135256-12.373416-51.289807-1.496784-64.561294 10.677061-13.071916 30.73397-16.664198 61.368154-11.175989 26.542974 4.78971 51.888521 3.692068 75.437927-3.19314 23.549406-6.885208 46.100955-19.857338 66.856363-38.517248 24.148119-21.753264 43.506529-29.436757 58.9733-23.549405 15.466771 5.887351 24.746833 24.547262 28.239329 56.877801 3.093354 27.740401 11.175989 52.387449 24.148119 73.242643 12.97213 20.855194 31.133112 38.517248 54.083805 52.686806 26.542974 16.364841 39.016176 32.430325 38.317677 49.294094-0.698499 17.163126-15.167414 32.530111-44.205029 47.098812-24.746833 12.373416-45.103099 28.738258-60.669655 48.495809-15.566556 19.857338-26.842331 43.805886-33.428181 71.246931-7.783278 32.430325-19.557981 50.192165-36.022608 54.383161-2.694212 0.798285-5.188852 1.097642-7.683492 1.097642zM351.646443 613.681544c49.892808 0 92.800624 19.458195 127.825375 57.875657 16.464627 18.061197 30.334828 26.343403 40.113818 23.748977 10.277919-2.594426 18.959267-17.662054 25.145976-43.406743 14.269343-59.272656 48.49581-102.878971 101.9809-129.721302 23.050477-11.575132 35.52368-23.44962 35.922822-34.326252 0.498928-10.577275-10.277919-23.050477-31.232898-35.823037-49.892808-30.73397-78.631066-76.834925-85.216917-137.005652-2.793997-25.545118-9.280062-40.912103-18.759696-44.504385-9.479634-3.592282-24.547262 3.592282-43.606314 20.655623-45.103099 40.413175-97.191191 55.680374-154.867277 45.30267-24.148119-4.290782-40.413175-2.295069-47.198597 5.987137-6.885208 8.481777-5.587995 25.644904 3.891639 49.593452 21.952836 55.480803 18.360553 110.961606-10.47749 164.646267-12.572988 23.349834-16.065484 40.313389-10.178133 49.094524 5.587995 8.381992 21.453908 11.575132 45.801598 9.080491 7.184564-0.898071 14.069772-1.197427 20.855194-1.197427z" fill="#6B3437" p-id="3227"></path><path d="M478.673533 324.203469c-1.197427 0-2.295069-0.598714-2.993568-1.59657-1.097642-1.696355-0.598714-3.891639 0.997856-4.989281 6.486065-4.290782 12.572988-8.980706 18.061197-14.069772 1.496784-1.297213 3.692068-1.297213 5.089066 0.199572 1.297213 1.396999 1.297213 3.692068-0.199571 5.089066-5.787566 5.388423-12.173845 10.377704-19.059053 14.868057-0.598714 0.299357-1.197427 0.498928-1.895927 0.498928zM374.497349 353.54044c-1.995712 0-3.292925 0-3.592282-0.099785-1.995712-0.099786-3.492497-1.796141-3.392711-3.692068 0.099786-1.995712 1.696355-3.492497 3.692068-3.392711 0.498928 0 48.096667 1.696355 92.002339-20.954979 1.796141-0.898071 3.891639-0.199571 4.789709 1.496784 0.898071 1.796141 0.199571 3.891639-1.496784 4.789709-39.115962 20.25648-79.928279 21.85305-92.002339 21.85305zM323.906042 508.707075c-0.498928 0-0.997856-0.099786-1.396999-0.299357-1.796141-0.798285-2.594426-2.893783-1.796141-4.689924 5.587995-12.672773 6.486065-24.048334 6.186708-31.332684-0.299357-7.982849-1.895927-12.97213-1.895927-13.071916-0.598714-1.895927 0.399142-3.891639 2.29507-4.490352 1.895927-0.598714 3.891639 0.399142 4.490352 2.295069 0.299357 0.898071 7.384136 22.551549-4.490352 49.493666-0.698499 1.297213-2.095498 2.095498-3.392711 2.095498z" fill="#FFFFFF" p-id="3228"></path></svg>