<?xml version="1.0" standalone="no"?><!DOCTYPE svg PUBLIC "-//W3C//DTD SVG 1.1//EN" "http://www.w3.org/Graphics/SVG/1.1/DTD/svg11.dtd"><svg t="1751586137260" class="icon" viewBox="0 0 1024 1024" version="1.1" xmlns="http://www.w3.org/2000/svg" p-id="1488" xmlns:xlink="http://www.w3.org/1999/xlink" width="200" height="200"><path d="M540.16 237.568l70.656 142.336c4.608 9.216 13.312 15.36 23.552 16.896l158.208 23.04c25.6 3.584 35.84 34.816 17.408 52.736L695.296 583.68c-7.168 7.168-10.752 17.408-8.704 27.136l27.136 156.672c4.608 25.088-22.528 44.544-45.056 32.256L527.36 726.016c-9.216-4.608-19.968-4.608-29.184 0l-141.312 73.728c-23.04 11.776-49.664-7.168-45.056-32.256l27.136-156.672c1.536-10.24-1.536-19.968-8.704-27.136L214.016 472.576c-18.432-17.92-8.192-49.152 17.408-52.736l158.208-23.04c10.24-1.536 18.944-7.68 23.552-16.896l70.656-142.336c11.776-23.04 44.544-23.04 56.32 0z" fill="#bd8cbb" p-id="1489"></path></svg>